<?xml version="1.0" standalone="no"?>
<!DOCTYPE svg PUBLIC "-//W3C//DTD SVG 20010904//EN"
 "http://www.w3.org/TR/2001/REC-SVG-20010904/DTD/svg10.dtd">
<svg version="1.0" xmlns="http://www.w3.org/2000/svg"
 width="480.000000pt" height="480.000000pt" viewBox="0 0 480.000000 480.000000"
 preserveAspectRatio="xMidYMid meet">
<metadata>
Created by potrace 1.14, written by Peter Selinger 2001-2017
</metadata>
<g transform="translate(0.000000,480.000000) scale(0.100000,-0.100000)"
fill="#000000" stroke="none">
<path d="M1958 4446 c-74 -26 -123 -75 -147 -145 -14 -42 -14 -121 -1 -156 9
-24 5 -32 -40 -83 -28 -31 -70 -95 -93 -141 -40 -80 -45 -84 -93 -102 -202
-76 -237 -320 -53 -369 22 -6 39 -17 39 -24 0 -7 9 -24 19 -38 19 -23 19 -27
5 -69 -47 -133 53 -298 234 -386 42 -20 78 -38 80 -38 1 -1 -22 -53 -52 -116
-111 -234 -195 -538 -204 -742 -5 -114 -6 -119 -33 -147 -32 -32 -37 -61 -13
-85 13 -12 14 -19 4 -30 -7 -8 -21 -15 -32 -15 -33 0 -86 -28 -104 -55 -14
-22 -15 -32 -5 -65 7 -23 24 -48 42 -62 17 -13 56 -49 87 -81 171 -178 530
-298 980 -327 106 -7 204 -7 302 0 80 5 148 10 153 10 10 0 9 -28 -4 -74 -15
-55 -88 -128 -157 -159 -119 -54 -171 -62 -377 -61 -588 3 -1084 173 -1450
497 -53 46 -84 67 -98 65 -69 -10 -61 -191 14 -341 183 -364 715 -671 1324
-763 169 -26 621 -26 780 -1 383 61 627 204 749 437 73 140 99 294 76 451 -13
93 -58 240 -94 308 l-23 44 28 62 c80 177 77 440 -7 677 -97 274 -307 587
-546 814 l-94 89 18 70 c10 39 21 111 25 162 l6 92 32 11 c100 33 159 177 125
301 -37 133 -191 229 -323 202 -50 -10 -51 -10 -91 27 -91 82 -223 152 -346
185 -37 9 -124 19 -202 22 -96 4 -138 9 -138 18 0 24 -76 99 -124 121 -57 27
-121 30 -178 10z m142 -26 c44 -12 97 -50 122 -87 10 -16 18 -31 18 -34 0 -4
-21 -9 -47 -13 -27 -4 -61 -13 -78 -21 -28 -14 -23 -14 55 -7 146 12 328 7
411 -12 94 -21 213 -77 296 -140 35 -26 65 -52 69 -57 3 -5 -11 -24 -30 -43
-42 -39 -66 -91 -66 -141 0 -47 17 -45 25 4 30 176 249 228 385 91 81 -80 100
-192 50 -289 -52 -103 -206 -131 -274 -50 -47 56 -47 126 2 171 59 56 124 44
143 -26 11 -38 12 -40 22 -18 21 47 -35 107 -99 105 -71 -2 -134 -68 -134
-142 0 -49 36 -117 74 -141 19 -11 54 -23 80 -26 44 -6 46 -8 46 -38 0 -68
-22 -202 -46 -277 -28 -88 -27 -124 0 -70 l18 34 100 -99 c294 -292 509 -660
568 -974 29 -149 12 -330 -40 -448 l-20 -45 -30 28 c-39 38 -38 21 4 -50 76
-126 128 -316 129 -470 1 -286 -154 -526 -417 -645 -96 -44 -218 -79 -355
-102 -172 -30 -613 -32 -791 -5 -464 72 -879 263 -1135 522 -149 150 -213 272
-223 422 -7 115 3 116 118 14 279 -246 620 -395 1061 -462 198 -30 570 -34
668 -6 190 54 305 173 288 299 -8 62 -77 164 -77 115 0 -7 7 -22 15 -33 8 -10
15 -24 15 -30 0 -29 -391 -35 -585 -9 -325 43 -593 134 -762 258 -34 26 -67
56 -74 69 -17 31 -14 129 4 164 42 80 218 200 364 248 73 24 80 41 15 32 l-52
-7 6 48 c19 160 58 302 116 417 43 85 32 98 -19 23 -56 -83 -105 -242 -125
-406 l-12 -93 -35 -15 c-19 -8 -60 -31 -90 -50 -50 -32 -56 -34 -67 -18 -50
68 -8 365 93 659 53 154 136 336 155 336 7 0 38 -7 68 -16 30 -8 116 -18 190
-21 209 -8 370 32 462 115 95 86 90 181 -14 273 l-41 37 49 21 c64 29 92 55
120 116 60 126 7 297 -109 357 -107 54 -262 -5 -318 -120 l-16 -32 -33 47
c-79 109 -156 160 -277 183 l-61 12 15 37 c19 45 21 128 4 159 -19 36 -74 55
-118 43 -20 -6 -38 -9 -40 -7 -2 2 28 27 67 56 40 28 69 54 66 57 -3 4 -33 -7
-65 -24 -67 -35 -71 -32 -71 39 0 152 125 248 270 208z m-145 -370 c27 -30 31
-116 8 -160 l-18 -35 -65 3 c-36 1 -96 -1 -135 -6 -38 -5 -71 -8 -73 -7 -6 6
28 76 58 120 59 86 182 132 225 85z m33 -230 c162 -27 226 -76 363 -277 69
-101 125 -169 209 -253 140 -140 150 -153 150 -207 0 -108 -172 -197 -406
-210 -171 -10 -385 37 -499 108 -125 78 -189 172 -189 279 0 68 11 98 58 155
32 40 45 26 15 -17 -30 -42 -39 -150 -16 -194 70 -133 363 -259 556 -240 74 8
157 35 200 65 16 12 44 21 63 21 45 0 79 10 72 21 -3 5 -20 7 -37 4 -46 -9
-198 12 -260 36 -75 29 -175 107 -249 195 -103 123 -152 144 -368 163 -135 12
-159 22 -190 74 -66 108 45 246 221 276 76 12 232 13 307 1z m697 -98 c80 -56
115 -176 83 -286 -16 -52 -81 -117 -133 -134 l-40 -12 -62 67 c-67 72 -173
214 -173 230 0 21 61 99 94 122 86 57 161 62 231 13z m-1046 -308 c-22 -23
-24 -24 -36 -8 -20 28 -16 34 24 34 l36 0 -24 -26z m360 -137 c63 -73 71 -86
71 -124 0 -65 35 -88 90 -60 22 11 33 10 84 -11 32 -13 82 -26 110 -29 l50 -6
-44 -20 c-71 -31 -224 -35 -330 -8 -105 26 -221 83 -260 128 -43 49 -43 113 2
167 17 21 50 47 71 56 51 23 61 17 156 -93z m160 -148 c1 -3 -10 -11 -23 -17
-31 -14 -50 5 -40 42 l6 26 29 -23 c15 -12 28 -25 28 -28z m-482 -1266 c12
-18 11 -22 -12 -37 -14 -9 -30 -14 -35 -11 -14 9 -12 49 2 63 15 15 28 11 45
-15z m-114 -170 c-4 -21 -8 -57 -8 -80 1 -49 -4 -52 -32 -20 -42 45 -42 105
-1 125 42 20 50 15 41 -25z"/>
<path d="M1875 3939 c-4 -6 -5 -13 -2 -16 7 -7 27 6 27 18 0 12 -17 12 -25 -2z"/>
<path d="M1770 3570 c0 -16 5 -30 10 -30 6 0 10 14 10 30 0 17 -4 30 -10 30
-5 0 -10 -13 -10 -30z"/>
<path d="M1970 3485 c-24 -14 -24 -14 -3 -15 28 0 53 10 53 21 0 13 -21 10
-50 -6z"/>
<path d="M2600 3525 c0 -8 7 -15 15 -15 8 0 15 7 15 15 0 8 -7 15 -15 15 -8 0
-15 -7 -15 -15z"/>
</g>
</svg>
